<?xml version="1.0" encoding="UTF-8" standalone="no" ?>
<!DOCTYPE svg PUBLIC "-//W3C//DTD SVG 1.1//EN" "http://www.w3.org/Graphics/SVG/1.1/DTD/svg11.dtd">
<svg xmlns="http://www.w3.org/2000/svg" xmlns:xlink="http://www.w3.org/1999/xlink" version="1.1" width="500" height="500" viewBox="0 0 500 500" xml:space="preserve">
<desc>Created with Fabric.js 4.6.0</desc>
<defs>
</defs>
<g transform="matrix(0 3.77 -3.94 0 74.68 173.83)" id="tMTjeRiZiUiH0ZqXTIUaS"  >
<path style="stroke: none; stroke-width: 1; stroke-dasharray: none; stroke-linecap: butt; stroke-dashoffset: 0; stroke-linejoin: miter; stroke-miterlimit: 4; fill: rgb(71,95,102); fill-rule: nonzero; opacity: 1;" vector-effect="non-scaling-stroke"  transform=" translate(-40, -40)" d="M 65.7 25.7 L 54.2 25.7 C 47.5 25.7 41.900000000000006 30.299999999999997 40.300000000000004 36.5 L 39.6 36.5 C 38 30.3 32.4 25.7 25.700000000000003 25.7 L 14.3 25.7 C 6.4 25.7 0 32.1 0 40 C 0 47.9 6.4 54.3 14.3 54.3 L 25.8 54.3 C 32.2 54.3 37.5 50.099999999999994 39.4 44.4 L 40.6 44.4 C 42.5 50.1 47.800000000000004 54.3 54.2 54.3 L 65.7 54.3 C 73.6 54.3 80 47.9 80 40 C 80 32.1 73.6 25.7 65.7 25.7 z M 25.8 46.9 L 14.3 46.9 C 10.5 46.9 7.4 43.8 7.4 40 C 7.4 36.2 10.5 33.1 14.3 33.1 L 25.8 33.1 C 28.3 33.1 30.6 34.5 31.8 36.6 L 26.8 36.6 C 24.6 36.6 22.900000000000002 38.4 22.900000000000002 40.5 C 22.900000000000002 42.6 24.700000000000003 44.4 26.8 44.4 L 31.8 44.4 C 30.5 45.9 28 46.9 25.8 46.9 z M 65.7 46.9 L 54.2 46.9 C 52.1 46.9 49.5 45.9 48.2 44.4 L 52.5 44.4 C 54.7 44.4 56.4 42.6 56.4 40.5 C 56.4 38.4 54.6 36.6 52.5 36.6 L 48.2 36.6 C 49.400000000000006 34.5 51.6 33.1 54.2 33.1 L 65.7 33.1 C 69.5 33.1 72.60000000000001 36.2 72.60000000000001 40 C 72.6 43.8 69.5 46.9 65.7 46.9 z" stroke-linecap="round" />
</g>
<g transform="matrix(0 3.75 -3.92 0 74.39 326.95)" id="l64vD4cX-StkXMgs_LgG-"  >
<path style="stroke: none; stroke-width: 1; stroke-dasharray: none; stroke-linecap: butt; stroke-dashoffset: 0; stroke-linejoin: miter; stroke-miterlimit: 4; fill: rgb(71,95,102); fill-rule: nonzero; opacity: 1;" vector-effect="non-scaling-stroke"  transform=" translate(0, 0)" d="M 25.7 -14.3 L 14.2 -14.3 C 7.499999999999999 -14.3 1.8999999999999986 -9.700000000000001 0.29999999999999893 -3.5 L -0.400000000000001 -3.5 C -2.000000000000001 -9.7 -7.600000000000001 -14.3 -14.3 -14.3 L -25.700000000000003 -14.3 C -33.6 -14.3 -40 -7.9 -40 0 C -40 7.9 -33.6 14.3 -25.7 14.3 L -14.2 14.3 C -7.799999999999999 14.3 -2.5 10.100000000000001 -0.5999999999999996 4.4 L 0.6000000000000003 4.4 C 2.5 10.100000000000001 7.800000000000001 14.3 14.2 14.3 L 25.7 14.3 C 33.6 14.3 40 7.9 40 0 C 40 -7.9 33.6 -14.3 25.7 -14.3 z M -14.2 6.9 L -25.7 6.9 C -29.5 6.9 -32.6 3.8000000000000003 -32.6 0 C -32.6 -3.8 -29.5 -6.9 -25.700000000000003 -6.9 L -14.200000000000003 -6.9 C -11.700000000000003 -6.9 -9.400000000000002 -5.5 -8.200000000000003 -3.4000000000000004 L -13.200000000000003 -3.4000000000000004 C -15.400000000000002 -3.4000000000000004 -17.1 -1.6000000000000003 -17.1 0.49999999999999956 C -17.1 2.5999999999999996 -15.3 4.3999999999999995 -13.200000000000001 4.3999999999999995 L -8.200000000000001 4.3999999999999995 C -9.500000000000002 5.8999999999999995 -12 6.8999999999999995 -14.200000000000001 6.8999999999999995 z M 25.7 6.9 L 14.2 6.9 C 12.1 6.9 9.5 5.9 8.2 4.4 L 12.5 4.4 C 14.7 4.4 16.4 2.6000000000000005 16.4 0.5000000000000004 C 16.4 -1.5999999999999996 14.599999999999998 -3.3999999999999995 12.499999999999998 -3.3999999999999995 L 8.2 -3.3999999999999995 C 9.399999999999999 -5.5 11.6 -6.8999999999999995 14.2 -6.8999999999999995 L 25.7 -6.8999999999999995 C 29.5 -6.8999999999999995 32.6 -3.7999999999999994 32.6 8.881784197001252e-16 C 32.6 3.8000000000000007 29.5 6.900000000000001 25.700000000000003 6.900000000000001 z" stroke-linecap="round" />
</g>
<g transform="matrix(0 3.75 -3.92 0 191.46 174.6)" id="D8hiZyLdnvL0zJJf4zSKp"  >
<path style="stroke: none; stroke-width: 1; stroke-dasharray: none; stroke-linecap: butt; stroke-dashoffset: 0; stroke-linejoin: miter; stroke-miterlimit: 4; fill: rgb(71,95,102); fill-rule: nonzero; opacity: 1;" vector-effect="non-scaling-stroke"  transform=" translate(0, 0)" d="M 25.7 -14.3 L 14.2 -14.3 C 7.499999999999999 -14.3 1.8999999999999986 -9.700000000000001 0.29999999999999893 -3.5 L -0.400000000000001 -3.5 C -2.000000000000001 -9.7 -7.600000000000001 -14.3 -14.3 -14.3 L -25.700000000000003 -14.3 C -33.6 -14.3 -40 -7.9 -40 0 C -40 7.9 -33.6 14.3 -25.7 14.3 L -14.2 14.3 C -7.799999999999999 14.3 -2.5 10.100000000000001 -0.5999999999999996 4.4 L 0.6000000000000003 4.4 C 2.5 10.100000000000001 7.800000000000001 14.3 14.2 14.3 L 25.7 14.3 C 33.6 14.3 40 7.9 40 0 C 40 -7.9 33.6 -14.3 25.7 -14.3 z M -14.2 6.9 L -25.7 6.9 C -29.5 6.9 -32.6 3.8000000000000003 -32.6 0 C -32.6 -3.8 -29.5 -6.9 -25.700000000000003 -6.9 L -14.200000000000003 -6.9 C -11.700000000000003 -6.9 -9.400000000000002 -5.5 -8.200000000000003 -3.4000000000000004 L -13.200000000000003 -3.4000000000000004 C -15.400000000000002 -3.4000000000000004 -17.1 -1.6000000000000003 -17.1 0.49999999999999956 C -17.1 2.5999999999999996 -15.3 4.3999999999999995 -13.200000000000001 4.3999999999999995 L -8.200000000000001 4.3999999999999995 C -9.500000000000002 5.8999999999999995 -12 6.8999999999999995 -14.200000000000001 6.8999999999999995 z M 25.7 6.9 L 14.2 6.9 C 12.1 6.9 9.5 5.9 8.2 4.4 L 12.5 4.4 C 14.7 4.4 16.4 2.6000000000000005 16.4 0.5000000000000004 C 16.4 -1.5999999999999996 14.599999999999998 -3.3999999999999995 12.499999999999998 -3.3999999999999995 L 8.2 -3.3999999999999995 C 9.399999999999999 -5.5 11.6 -6.8999999999999995 14.2 -6.8999999999999995 L 25.7 -6.8999999999999995 C 29.5 -6.8999999999999995 32.6 -3.7999999999999994 32.6 8.881784197001252e-16 C 32.6 3.8000000000000007 29.5 6.900000000000001 25.700000000000003 6.900000000000001 z" stroke-linecap="round" />
</g>
<g transform="matrix(0 3.75 -3.92 0 191.46 326.95)" id="_MMBUvTMJS7-EMPWgrRW9"  >
<path style="stroke: none; stroke-width: 1; stroke-dasharray: none; stroke-linecap: butt; stroke-dashoffset: 0; stroke-linejoin: miter; stroke-miterlimit: 4; fill: rgb(71,95,102); fill-rule: nonzero; opacity: 1;" vector-effect="non-scaling-stroke"  transform=" translate(0, 0)" d="M 25.7 -14.3 L 14.2 -14.3 C 7.499999999999999 -14.3 1.8999999999999986 -9.700000000000001 0.29999999999999893 -3.5 L -0.400000000000001 -3.5 C -2.000000000000001 -9.7 -7.600000000000001 -14.3 -14.3 -14.3 L -25.700000000000003 -14.3 C -33.6 -14.3 -40 -7.9 -40 0 C -40 7.9 -33.6 14.3 -25.7 14.3 L -14.2 14.3 C -7.799999999999999 14.3 -2.5 10.100000000000001 -0.5999999999999996 4.4 L 0.6000000000000003 4.4 C 2.5 10.100000000000001 7.800000000000001 14.3 14.2 14.3 L 25.7 14.3 C 33.6 14.3 40 7.9 40 0 C 40 -7.9 33.6 -14.3 25.7 -14.3 z M -14.2 6.9 L -25.7 6.9 C -29.5 6.9 -32.6 3.8000000000000003 -32.6 0 C -32.6 -3.8 -29.5 -6.9 -25.700000000000003 -6.9 L -14.200000000000003 -6.9 C -11.700000000000003 -6.9 -9.400000000000002 -5.5 -8.200000000000003 -3.4000000000000004 L -13.200000000000003 -3.4000000000000004 C -15.400000000000002 -3.4000000000000004 -17.1 -1.6000000000000003 -17.1 0.49999999999999956 C -17.1 2.5999999999999996 -15.3 4.3999999999999995 -13.200000000000001 4.3999999999999995 L -8.200000000000001 4.3999999999999995 C -9.500000000000002 5.8999999999999995 -12 6.8999999999999995 -14.200000000000001 6.8999999999999995 z M 25.7 6.9 L 14.2 6.9 C 12.1 6.9 9.5 5.9 8.2 4.4 L 12.5 4.4 C 14.7 4.4 16.4 2.6000000000000005 16.4 0.5000000000000004 C 16.4 -1.5999999999999996 14.599999999999998 -3.3999999999999995 12.499999999999998 -3.3999999999999995 L 8.2 -3.3999999999999995 C 9.399999999999999 -5.5 11.6 -6.8999999999999995 14.2 -6.8999999999999995 L 25.7 -6.8999999999999995 C 29.5 -6.8999999999999995 32.6 -3.7999999999999994 32.6 8.881784197001252e-16 C 32.6 3.8000000000000007 29.5 6.900000000000001 25.700000000000003 6.900000000000001 z" stroke-linecap="round" />
</g>
<g transform="matrix(0 3.75 -3.92 0 308.54 174.6)" id="e1nfdZzBQwh8AfddKE_gQ"  >
<path style="stroke: none; stroke-width: 1; stroke-dasharray: none; stroke-linecap: butt; stroke-dashoffset: 0; stroke-linejoin: miter; stroke-miterlimit: 4; fill: rgb(71,95,102); fill-rule: nonzero; opacity: 1;" vector-effect="non-scaling-stroke"  transform=" translate(0, 0)" d="M 25.7 -14.3 L 14.2 -14.3 C 7.499999999999999 -14.3 1.8999999999999986 -9.700000000000001 0.29999999999999893 -3.5 L -0.400000000000001 -3.5 C -2.000000000000001 -9.7 -7.600000000000001 -14.3 -14.3 -14.3 L -25.700000000000003 -14.3 C -33.6 -14.3 -40 -7.9 -40 0 C -40 7.9 -33.6 14.3 -25.7 14.3 L -14.2 14.3 C -7.799999999999999 14.3 -2.5 10.100000000000001 -0.5999999999999996 4.4 L 0.6000000000000003 4.4 C 2.5 10.100000000000001 7.800000000000001 14.3 14.2 14.3 L 25.7 14.3 C 33.6 14.3 40 7.9 40 0 C 40 -7.9 33.6 -14.3 25.7 -14.3 z M -14.2 6.9 L -25.7 6.9 C -29.5 6.9 -32.6 3.8000000000000003 -32.6 0 C -32.6 -3.8 -29.5 -6.9 -25.700000000000003 -6.9 L -14.200000000000003 -6.9 C -11.700000000000003 -6.9 -9.400000000000002 -5.5 -8.200000000000003 -3.4000000000000004 L -13.200000000000003 -3.4000000000000004 C -15.400000000000002 -3.4000000000000004 -17.1 -1.6000000000000003 -17.1 0.49999999999999956 C -17.1 2.5999999999999996 -15.3 4.3999999999999995 -13.200000000000001 4.3999999999999995 L -8.200000000000001 4.3999999999999995 C -9.500000000000002 5.8999999999999995 -12 6.8999999999999995 -14.200000000000001 6.8999999999999995 z M 25.7 6.9 L 14.2 6.9 C 12.1 6.9 9.5 5.9 8.2 4.4 L 12.5 4.4 C 14.7 4.4 16.4 2.6000000000000005 16.4 0.5000000000000004 C 16.4 -1.5999999999999996 14.599999999999998 -3.3999999999999995 12.499999999999998 -3.3999999999999995 L 8.2 -3.3999999999999995 C 9.399999999999999 -5.5 11.6 -6.8999999999999995 14.2 -6.8999999999999995 L 25.7 -6.8999999999999995 C 29.5 -6.8999999999999995 32.6 -3.7999999999999994 32.6 8.881784197001252e-16 C 32.6 3.8000000000000007 29.5 6.900000000000001 25.700000000000003 6.900000000000001 z" stroke-linecap="round" />
</g>
<g transform="matrix(0 3.75 -3.92 0 308.54 326.95)" id="epePzbrWlv693SwyTydlt"  >
<path style="stroke: none; stroke-width: 1; stroke-dasharray: none; stroke-linecap: butt; stroke-dashoffset: 0; stroke-linejoin: miter; stroke-miterlimit: 4; fill: rgb(71,95,102); fill-rule: nonzero; opacity: 1;" vector-effect="non-scaling-stroke"  transform=" translate(0, 0)" d="M 25.7 -14.3 L 14.2 -14.3 C 7.499999999999999 -14.3 1.8999999999999986 -9.700000000000001 0.29999999999999893 -3.5 L -0.400000000000001 -3.5 C -2.000000000000001 -9.7 -7.600000000000001 -14.3 -14.3 -14.3 L -25.700000000000003 -14.3 C -33.6 -14.3 -40 -7.9 -40 0 C -40 7.9 -33.6 14.3 -25.7 14.3 L -14.2 14.3 C -7.799999999999999 14.3 -2.5 10.100000000000001 -0.5999999999999996 4.4 L 0.6000000000000003 4.4 C 2.5 10.100000000000001 7.800000000000001 14.3 14.2 14.3 L 25.7 14.3 C 33.6 14.3 40 7.9 40 0 C 40 -7.9 33.6 -14.3 25.7 -14.3 z M -14.2 6.9 L -25.7 6.9 C -29.5 6.9 -32.6 3.8000000000000003 -32.6 0 C -32.6 -3.8 -29.5 -6.9 -25.700000000000003 -6.9 L -14.200000000000003 -6.9 C -11.700000000000003 -6.9 -9.400000000000002 -5.5 -8.200000000000003 -3.4000000000000004 L -13.200000000000003 -3.4000000000000004 C -15.400000000000002 -3.4000000000000004 -17.1 -1.6000000000000003 -17.1 0.49999999999999956 C -17.1 2.5999999999999996 -15.3 4.3999999999999995 -13.200000000000001 4.3999999999999995 L -8.200000000000001 4.3999999999999995 C -9.500000000000002 5.8999999999999995 -12 6.8999999999999995 -14.200000000000001 6.8999999999999995 z M 25.7 6.9 L 14.2 6.9 C 12.1 6.9 9.5 5.9 8.2 4.4 L 12.5 4.4 C 14.7 4.4 16.4 2.6000000000000005 16.4 0.5000000000000004 C 16.4 -1.5999999999999996 14.599999999999998 -3.3999999999999995 12.499999999999998 -3.3999999999999995 L 8.2 -3.3999999999999995 C 9.399999999999999 -5.5 11.6 -6.8999999999999995 14.2 -6.8999999999999995 L 25.7 -6.8999999999999995 C 29.5 -6.8999999999999995 32.6 -3.7999999999999994 32.6 8.881784197001252e-16 C 32.6 3.8000000000000007 29.5 6.900000000000001 25.700000000000003 6.900000000000001 z" stroke-linecap="round" />
</g>
<g transform="matrix(0 3.75 -3.92 0 425.61 174.6)" id="tXrH5M4ltHRs5GSO1tCpa"  >
<path style="stroke: none; stroke-width: 1; stroke-dasharray: none; stroke-linecap: butt; stroke-dashoffset: 0; stroke-linejoin: miter; stroke-miterlimit: 4; fill: rgb(71,95,102); fill-rule: nonzero; opacity: 1;" vector-effect="non-scaling-stroke"  transform=" translate(0, 0)" d="M 25.7 -14.3 L 14.2 -14.3 C 7.499999999999999 -14.3 1.8999999999999986 -9.700000000000001 0.29999999999999893 -3.5 L -0.400000000000001 -3.5 C -2.000000000000001 -9.7 -7.600000000000001 -14.3 -14.3 -14.3 L -25.700000000000003 -14.3 C -33.6 -14.3 -40 -7.9 -40 0 C -40 7.9 -33.6 14.3 -25.7 14.3 L -14.2 14.3 C -7.799999999999999 14.3 -2.5 10.100000000000001 -0.5999999999999996 4.4 L 0.6000000000000003 4.4 C 2.5 10.100000000000001 7.800000000000001 14.3 14.2 14.3 L 25.7 14.3 C 33.6 14.3 40 7.9 40 0 C 40 -7.9 33.6 -14.3 25.7 -14.3 z M -14.2 6.9 L -25.7 6.9 C -29.5 6.9 -32.6 3.8000000000000003 -32.6 0 C -32.6 -3.8 -29.5 -6.9 -25.700000000000003 -6.9 L -14.200000000000003 -6.9 C -11.700000000000003 -6.9 -9.400000000000002 -5.5 -8.200000000000003 -3.4000000000000004 L -13.200000000000003 -3.4000000000000004 C -15.400000000000002 -3.4000000000000004 -17.1 -1.6000000000000003 -17.1 0.49999999999999956 C -17.1 2.5999999999999996 -15.3 4.3999999999999995 -13.200000000000001 4.3999999999999995 L -8.200000000000001 4.3999999999999995 C -9.500000000000002 5.8999999999999995 -12 6.8999999999999995 -14.200000000000001 6.8999999999999995 z M 25.7 6.9 L 14.2 6.9 C 12.1 6.9 9.5 5.9 8.2 4.4 L 12.5 4.4 C 14.7 4.4 16.4 2.6000000000000005 16.4 0.5000000000000004 C 16.4 -1.5999999999999996 14.599999999999998 -3.3999999999999995 12.499999999999998 -3.3999999999999995 L 8.2 -3.3999999999999995 C 9.399999999999999 -5.5 11.6 -6.8999999999999995 14.2 -6.8999999999999995 L 25.7 -6.8999999999999995 C 29.5 -6.8999999999999995 32.6 -3.7999999999999994 32.6 8.881784197001252e-16 C 32.6 3.8000000000000007 29.5 6.900000000000001 25.700000000000003 6.900000000000001 z" stroke-linecap="round" />
</g>
<g transform="matrix(0 3.75 -3.92 0 425.61 326.95)" id="PHm26RceAx1h8Tw_2qAUO"  >
<path style="stroke: none; stroke-width: 1; stroke-dasharray: none; stroke-linecap: butt; stroke-dashoffset: 0; stroke-linejoin: miter; stroke-miterlimit: 4; fill: rgb(71,95,102); fill-rule: nonzero; opacity: 1;" vector-effect="non-scaling-stroke"  transform=" translate(0, 0)" d="M 25.7 -14.3 L 14.2 -14.3 C 7.499999999999999 -14.3 1.8999999999999986 -9.700000000000001 0.29999999999999893 -3.5 L -0.400000000000001 -3.5 C -2.000000000000001 -9.7 -7.600000000000001 -14.3 -14.3 -14.3 L -25.700000000000003 -14.3 C -33.6 -14.3 -40 -7.9 -40 0 C -40 7.9 -33.6 14.3 -25.7 14.3 L -14.2 14.3 C -7.799999999999999 14.3 -2.5 10.100000000000001 -0.5999999999999996 4.4 L 0.6000000000000003 4.4 C 2.5 10.100000000000001 7.800000000000001 14.3 14.2 14.3 L 25.7 14.3 C 33.6 14.3 40 7.9 40 0 C 40 -7.9 33.6 -14.3 25.7 -14.3 z M -14.2 6.9 L -25.7 6.9 C -29.5 6.9 -32.6 3.8000000000000003 -32.6 0 C -32.6 -3.8 -29.5 -6.9 -25.700000000000003 -6.9 L -14.200000000000003 -6.9 C -11.700000000000003 -6.9 -9.400000000000002 -5.5 -8.200000000000003 -3.4000000000000004 L -13.200000000000003 -3.4000000000000004 C -15.400000000000002 -3.4000000000000004 -17.1 -1.6000000000000003 -17.1 0.49999999999999956 C -17.1 2.5999999999999996 -15.3 4.3999999999999995 -13.200000000000001 4.3999999999999995 L -8.200000000000001 4.3999999999999995 C -9.500000000000002 5.8999999999999995 -12 6.8999999999999995 -14.200000000000001 6.8999999999999995 z M 25.7 6.9 L 14.2 6.9 C 12.1 6.9 9.5 5.9 8.2 4.4 L 12.5 4.4 C 14.7 4.4 16.4 2.6000000000000005 16.4 0.5000000000000004 C 16.4 -1.5999999999999996 14.599999999999998 -3.3999999999999995 12.499999999999998 -3.3999999999999995 L 8.2 -3.3999999999999995 C 9.399999999999999 -5.5 11.6 -6.8999999999999995 14.2 -6.8999999999999995 L 25.7 -6.8999999999999995 C 29.5 -6.8999999999999995 32.6 -3.7999999999999994 32.6 8.881784197001252e-16 C 32.6 3.8000000000000007 29.5 6.900000000000001 25.700000000000003 6.900000000000001 z" stroke-linecap="round" />
</g>
</svg>